<svg width="100%" height="28" viewBox="0 0 111 28" fill="none" xmlns="http://www.w3.org/2000/svg">
    <path fill-rule="evenodd" clip-rule="evenodd"
          d="M100.025 21.4339H101.755C101.938 21.4339 102.086 21.2857 102.086 21.1031H102.086V21.0946V16.6548H105.043C108.319 16.6548 111 14.9131 111 11.5787C111 8.54162 108.809 6.56628 105.341 6.56628H100.025C99.7178 6.56628 99.469 6.81471 99.469 7.12095V20.8791C99.469 21.1856 99.7178 21.4339 100.025 21.4339ZM49.1773 19.2113L49.1774 19.22C49.1774 19.3284 49.1252 19.4247 49.0444 19.485C47.5832 20.6891 45.5246 21.6887 42.9651 21.6887C38.3062 21.6887 35.2426 18.3752 35.2426 14C35.2426 9.83701 38.4338 6.31128 42.9227 6.31128C45.2537 6.31128 46.7782 6.89373 48.1745 7.9513L48.1751 7.95173L48.1774 7.95343C48.3177 8.05431 48.4091 8.21852 48.4091 8.40436C48.4091 8.54502 48.3566 8.67368 48.27 8.77138L48.2743 8.77095L47.2059 10.0428C47.1453 10.1207 47.0506 10.1709 46.9441 10.1709C46.8672 10.1709 46.7963 10.1446 46.74 10.1006L46.7397 10.1004L46.7334 10.0954C45.668 9.24045 44.571 8.71124 42.8162 8.71124C40.0718 8.71124 37.987 11.1115 37.987 14C37.987 17.0586 40.0079 19.3099 43.0503 19.3099C44.4544 19.3099 45.7309 18.8639 46.6458 18.1841V15.4018H43.1773H43.1687C42.9857 15.4018 42.8374 15.2537 42.8374 15.0711H42.8376V15.0625V13.469L42.8374 13.4599C42.8374 13.2772 42.9857 13.1292 43.1687 13.1292H43.1773H48.8462H48.8463C49.0293 13.1294 49.1774 13.2774 49.1774 13.46L49.1773 13.4685V19.2113ZM52.4288 21.4339H54.1588C54.3418 21.4339 54.4901 21.2857 54.4901 21.1031H54.49V21.0946V16.2513H57.7236L61.2656 21.2101L61.2662 21.2093C61.3674 21.3456 61.5297 21.4339 61.7127 21.4339H63.8675C64.0505 21.4339 64.1987 21.2857 64.1987 21.1031C64.1987 21.0258 64.1721 20.9547 64.1275 20.8982L60.4893 15.8053C62.5742 15.2107 64.0422 13.7451 64.0422 11.3028C64.0422 8.43522 61.9998 6.56628 58.5108 6.56628H52.4361L52.4288 6.56607C52.122 6.56607 51.8732 6.81461 51.8732 7.12085V20.8791C51.8732 21.1856 52.122 21.4339 52.4288 21.4339ZM54.49 13.9362V9.27566C54.49 9.093 54.6383 8.94503 54.8213 8.94503H58.298C60.2339 8.94503 61.3828 9.8159 61.3828 11.4086C61.3828 12.9593 60.1915 13.9362 58.3193 13.9362H54.49ZM73.6722 21.6887C78.2463 21.6887 81.48 18.1841 81.48 14C81.48 9.77337 78.2888 6.31128 73.7148 6.31128C69.1407 6.31128 65.907 9.8159 65.907 14C65.907 18.2266 69.0982 21.6887 73.6722 21.6887ZM73.7148 19.2888C70.7576 19.2888 68.6515 16.8885 68.6515 14C68.6515 11.0689 70.715 8.71124 73.6722 8.71124C76.6293 8.71124 78.7356 11.1115 78.7356 14C78.7356 16.9311 76.6719 19.2888 73.7148 19.2888ZM90.0476 21.6675C93.9409 21.6675 96.4512 19.4375 96.4512 14.9983V7.12095C96.4512 6.81471 96.2025 6.56628 95.8957 6.56628H94.1656C93.9826 6.56628 93.8343 6.71426 93.8343 6.89692H93.8344V6.90551V15.1258C93.8344 17.8654 92.4091 19.2674 90.0902 19.2674C87.7498 19.2674 86.3245 17.7806 86.3245 15.0195V6.90551V6.89692H86.3246C86.3246 6.71426 86.1764 6.56628 85.9934 6.56628H84.2634C83.9564 6.56628 83.7077 6.81471 83.7077 7.12095V15.1258C83.7077 19.4375 86.1756 21.6675 90.0476 21.6675ZM102.086 14.2974V9.27566C102.086 9.093 102.234 8.94503 102.417 8.94503H105.128C107.085 8.94503 108.34 9.85822 108.34 11.6002C108.34 13.1928 107.107 14.2974 105.128 14.2974H102.086Z"
          fill="#15599D"></path>
    <path fill-rule="evenodd" clip-rule="evenodd"
          d="M21.8825 25.6178C26.6528 23.9223 30.3799 20.0493 30.3799 13.9996C30.3799 7.95024 26.6528 4.07701 21.8823 2.38161C20.0145 1.71768 17.9858 1.38577 15.9556 1.38577C13.9255 1.38577 11.8968 1.71768 10.0289 2.38161C5.2586 4.07701 1.53148 7.95024 1.53148 13.9996C1.53148 20.0493 5.25861 23.9223 10.0291 25.6178C11.8969 26.2818 13.9256 26.6139 15.9558 26.6139C17.9859 26.6139 20.0147 26.2818 21.8825 25.6178ZM31.9116 14C31.9116 32.6667 0 32.6667 0 14C0 -4.66668 31.9116 -4.66668 31.9116 14ZM31.0772 13.9996C31.0772 20.3938 27.1459 24.4848 22.1139 26.2734C20.17 26.9644 18.0619 27.3099 15.9558 27.3099C13.8496 27.3099 11.7415 26.9644 9.79759 26.2734C4.76551 24.4848 0.834267 20.3938 0.834267 13.9996C0.834267 7.60582 4.76551 3.5147 9.79749 1.72627C11.7414 1.03508 13.8495 0.689704 15.9556 0.689704C18.0618 0.689704 20.1699 1.03508 22.1138 1.72627C27.1459 3.5147 31.0772 7.60582 31.0772 13.9996Z"
          fill="url(#paint0_linear)"></path>
    <path fill-rule="evenodd" clip-rule="evenodd"
          d="M31.0771 13.9996C31.0771 20.3938 27.1459 24.4848 22.1139 26.2734C20.1699 26.9644 18.0619 27.3099 15.9558 27.3099C13.8496 27.3099 11.7415 26.9644 9.79755 26.2734C4.76547 24.4848 0.834229 20.3938 0.834229 13.9996C0.834229 7.60581 4.76547 3.51469 9.79745 1.72626C11.7414 1.03508 13.8495 0.689697 15.9556 0.689697C18.0618 0.689697 20.1698 1.03508 22.1138 1.72626C27.1459 3.51469 31.0771 7.60581 31.0771 13.9996ZM21.8825 25.6178C26.6528 23.9223 30.3799 20.0493 30.3799 13.9996C30.3799 7.95024 26.6528 4.077 21.8823 2.3816C20.0145 1.71767 17.9858 1.38577 15.9556 1.38577C13.9255 1.38577 11.8967 1.71767 10.0289 2.3816C5.25857 4.077 1.53144 7.95024 1.53144 13.9996C1.53144 20.0493 5.25857 23.9223 10.0291 25.6178C11.8968 26.2818 13.9256 26.6139 15.9558 26.6139C17.9859 26.6139 20.0146 26.2818 21.8825 25.6178Z"
          fill="#FEFEFE"></path>
    <path fill-rule="evenodd" clip-rule="evenodd"
          d="M7.73646 21.5105H13.884C17.2826 21.5105 19.5193 20.1375 19.5193 17.3905C19.5193 15.3299 18.4435 14.3217 16.7017 13.6562C17.7769 13.0553 18.6808 12.1115 18.6808 10.4157C18.6808 7.5986 16.2225 6.48853 13.712 6.48853H7.73646C7.43152 6.48853 7.18439 6.73536 7.18439 7.0399V7.04192V20.9592V20.9593C7.18439 21.2639 7.43152 21.5105 7.73646 21.5105ZM10.4113 12.562V9.7164V9.71629C10.4114 9.53363 10.5595 9.38576 10.7425 9.38576H13.2172C14.6151 9.38576 15.3896 9.9435 15.3896 10.9311C15.3896 12.0897 14.4644 12.562 13.0023 12.562H10.4113ZM10.4113 18.2826V15.3087H13.7764C15.4753 15.3087 16.2281 15.9313 16.2281 16.9395C16.2281 18.0986 15.3462 18.6134 13.884 18.6134H10.7425C10.5595 18.6134 10.4113 18.4655 10.4113 18.2828V18.2826ZM21.7458 21.5105H24.1751C24.48 21.5105 24.7271 21.2639 24.7271 20.9593V20.9592V7.0399V7.0398C24.7269 6.73525 24.48 6.48853 24.1751 6.48853H21.7458C21.5629 6.48853 21.4148 6.6365 21.4147 6.81927V21.1799C21.4147 21.3626 21.5629 21.5105 21.7458 21.5105Z"
          fill="white"></path>
    <defs>
        <linearGradient id="paint0_linear" x1="19.6722" y1="17.9789" x2="3.20985" y2="0.295522"
                        gradientUnits="userSpaceOnUse">
            <stop stop-color="#074C89"></stop>
            <stop offset="1" stop-color="#2F83C5"></stop>
        </linearGradient>
    </defs>
</svg>